<!--
  - Copyright (c) 2026 Huawei Device Co., Ltd.
  - Licensed under the Apache License, Version 2.0 (the "License");
  - you may not use this file except in compliance with the License.
  - You may obtain a copy of the License at
  -
  -     http://www.apache.org/licenses/LICENSE-2.0
  -
  - Unless required by applicable law or agreed to in writing, software
  - distributed under the License is distributed on an "AS IS" BASIS,
  - WITHOUT WARRANTIES OR CONDITIONS OF ANY KIND, either express or implied.
  - See the License for the specific language governing permissions and
  - limitations under the License.
  -->

<svg xmlns="http://www.w3.org/2000/svg" width="24" height="24">
    <rect width="24" height="24" opacity="0"></rect>
    <g>
        <path d="M7.51 3.74Q6.98 3.74 6.61 4.12Q6.24 4.49 6.24 4.99L6.24 18.98Q6.24 19.51 6.61 19.87Q6.98 20.23 7.51 20.23Q8.02 20.23 8.39 19.87Q8.76 19.51 8.76 18.98L8.76 4.99Q8.76 4.49 8.39 4.12Q8.02 3.74 7.51 3.74ZM16.51 3.74Q15.98 3.74 15.61 4.12Q15.24 4.49 15.24 4.99L15.24 18.98Q15.24 19.51 15.61 19.87Q15.98 20.23 16.51 20.23Q17.02 20.23 17.39 19.87Q17.76 19.51 17.76 18.98L17.76 4.99Q17.76 4.49 17.39 4.12Q17.02 3.74 16.51 3.74Z"
              fill="rgba(0,0,0,0.9019607843137255)"></path>
    </g>
</svg>