<!--
  - Copyright (c) 2026 Huawei Device Co., Ltd.
  - Licensed under the Apache License, Version 2.0 (the "License");
  - you may not use this file except in compliance with the License.
  - You may obtain a copy of the License at
  -
  -     http://www.apache.org/licenses/LICENSE-2.0
  -
  - Unless required by applicable law or agreed to in writing, software
  - distributed under the License is distributed on an "AS IS" BASIS,
  - WITHOUT WARRANTIES OR CONDITIONS OF ANY KIND, either express or implied.
  - See the License for the specific language governing permissions and
  - limitations under the License.
  -->

<svg width="21.979980" height="21.979996" viewBox="0 0 21.98 21.98" fill="none" xmlns="http://www.w3.org/2000/svg"
>
    <desc>
        Created with Pixso.
    </desc>
    <defs/>
    <path id="path"
          d="M9.18 6.6C8.98 6.48 8.76 6.45 8.54 6.49C8.31 6.53 8.13 6.64 7.97 6.83C7.82 7 7.75 7.22 7.75 7.46L7.75 14.54C7.75 14.78 7.82 14.99 7.97 15.17C8.13 15.34 8.31 15.45 8.54 15.49C8.76 15.53 8.98 15.49 9.18 15.38L15.33 11.83C15.54 11.71 15.68 11.55 15.77 11.33C15.85 11.1 15.85 10.88 15.77 10.67C15.68 10.45 15.54 10.27 15.33 10.14L9.18 6.6Z"
          fill="#000000" fill-opacity="0.901961" fill-rule="nonzero"/>
    <path id="path"
          d="M10.99 1.49C12.7 1.49 14.28 1.91 15.74 2.77C17.2 3.62 18.35 4.78 19.2 6.24C20.06 7.69 20.49 9.27 20.49 10.99C20.49 12.7 20.06 14.28 19.2 15.74C18.35 17.2 17.2 18.35 15.74 19.2C14.28 20.06 12.7 20.49 10.99 20.49C9.27 20.49 7.69 20.06 6.23 19.2C4.78 18.35 3.62 17.2 2.77 15.74C1.91 14.28 1.48 12.7 1.48 10.99C1.48 9.27 1.91 7.69 2.77 6.24C3.62 4.78 4.78 3.62 6.23 2.77C7.69 1.91 9.27 1.49 10.99 1.49ZM10.99 0C8.98 0 7.15 0.49 5.46 1.47C3.79 2.45 2.45 3.78 1.46 5.47C0.48 7.14 0 8.99 0 10.99C0 12.99 0.48 14.83 1.46 16.51C2.45 18.19 3.79 19.52 5.46 20.51C7.15 21.49 8.98 21.98 10.99 21.98C12.97 21.98 14.81 21.49 16.5 20.51C18.18 19.52 19.52 18.18 20.51 16.5C21.49 14.81 21.98 12.97 21.98 10.99C21.98 9 21.49 7.16 20.51 5.48C19.52 3.79 18.18 2.45 16.5 1.47C14.81 0.49 12.97 0 10.99 0Z"
          fill="#000000" fill-opacity="0.901961" fill-rule="nonzero"/>
</svg>
