<!--
  - Copyright (c) 2026 Huawei Device Co., Ltd.
  - Licensed under the Apache License, Version 2.0 (the "License");
  - you may not use this file except in compliance with the License.
  - You may obtain a copy of the License at
  -
  -     http://www.apache.org/licenses/LICENSE-2.0
  -
  - Unless required by applicable law or agreed to in writing, software
  - distributed under the License is distributed on an "AS IS" BASIS,
  - WITHOUT WARRANTIES OR CONDITIONS OF ANY KIND, either express or implied.
  - See the License for the specific language governing permissions and
  - limitations under the License.
  -->

<svg xmlns="http://www.w3.org/2000/svg" width="24" height="24">
    <rect width="24" height="24" opacity="0"></rect>
    <g>
        <path d="M19.78 5.28Q19.99 5.04 19.99 4.74Q19.99 4.44 19.78 4.22Q19.56 3.98 19.25 3.98Q18.94 3.98 18.72 4.22L12 10.94L5.28 4.22Q5.06 3.98 4.75 3.98Q4.44 3.98 4.2 4.22Q4.01 4.44 4.01 4.74Q4.01 5.04 4.2 5.28L10.94 12L4.2 18.7Q4.01 18.94 4.01 19.25Q4.01 19.56 4.2 19.78Q4.44 19.97 4.75 19.98Q5.06 19.99 5.28 19.78L12 13.06L18.72 19.78Q18.94 19.99 19.25 19.99Q19.56 19.99 19.78 19.78Q19.99 19.56 19.99 19.25Q19.99 18.94 19.78 18.7L13.06 12L19.78 5.28Z"
              fill="rgba(0,0,0,0.9019607843137255)"></path>
    </g>
</svg>